<?xml version="1.0" standalone="no"?>
<!DOCTYPE svg PUBLIC "-//W3C//DTD SVG 20010904//EN"
 "http://www.w3.org/TR/2001/REC-SVG-20010904/DTD/svg10.dtd">
<svg version="1.0" xmlns="http://www.w3.org/2000/svg"
 width="current" height="current" viewBox="0 0 512.000000 512.000000"
 preserveAspectRatio="xMidYMid meet">

<g transform="translate(0.000000,512.000000) scale(0.100000,-0.100000)"
fill="current" stroke="none">
<path d="M2365 5114 c-371 -38 -649 -115 -944 -263 -94 -47 -242 -131 -260
-147 -2 -1 6 -18 18 -37 l21 -35 -77 -56 -78 -57 -28 31 -28 31 -69 -56 c-98
-80 -98 -80 -67 -113 l27 -28 -73 -72 -73 -73 -24 26 c-13 14 -27 25 -32 25
-12 0 -162 -184 -227 -280 -223 -325 -357 -666 -423 -1072 -29 -178 -31 -541
-5 -723 84 -574 334 -1073 738 -1472 401 -396 888 -637 1454 -720 181 -26 534
-24 720 5 522 81 1007 315 1366 657 l60 58 -25 26 c-14 15 -26 31 -26 37 0 5
27 36 60 69 34 33 60 68 60 80 0 16 2 17 10 5 5 -8 10 -11 10 -7 0 4 15 -4 34
-18 l34 -26 53 68 c29 37 57 74 63 82 8 10 2 20 -22 40 l-32 26 51 78 51 78
35 -21 c29 -17 38 -19 45 -8 34 51 172 345 206 440 52 146 107 369 129 523 26
181 24 535 -5 720 -67 430 -234 825 -496 1175 -91 122 -303 340 -431 443 -355
286 -780 470 -1250 543 -96 14 -465 27 -550 18z m48 -321 c-7 -2 -21 -2 -30 0
-10 3 -4 5 12 5 17 0 24 -2 18 -5z m330 0 c-7 -2 -21 -2 -30 0 -10 3 -4 5 12
5 17 0 24 -2 18 -5z m94 -9 c-3 -3 -12 -4 -19 -1 -8 3 -5 6 6 6 11 1 17 -2 13
-5z m-686 -86 c8 -7 51 -50 94 -96 l79 -83 -44 20 c-29 13 -66 21 -105 21
-146 0 -255 -109 -255 -256 0 -94 29 -140 170 -272 66 -62 127 -112 135 -112
12 0 15 -16 15 -84 0 -94 -1 -92 107 -208 36 -38 53 -65 53 -82 l0 -26 196 0
197 0 -39 -44 -39 -43 -101 5 c-112 5 -232 -9 -333 -40 -76 -23 -210 -88 -258
-124 -17 -13 -34 -24 -36 -24 -8 0 28 159 38 168 6 5 64 20 130 32 135 26 165
45 165 102 0 29 -31 63 -320 353 l-320 321 49 48 c43 43 48 52 40 73 -5 13 -9
27 -9 30 0 4 73 80 162 170 167 168 190 183 229 151z m593 -67 c3 -5 -1 -25
-9 -45 -10 -24 -15 -71 -15 -151 l0 -115 80 0 80 0 0 100 c0 146 -10 140 240
140 252 0 240 8 240 -152 l0 -112 -26 53 c-63 125 -221 169 -340 95 -56 -34
-103 -103 -111 -163 l-6 -41 -158 0 c-136 0 -159 2 -159 15 0 9 -18 35 -40 59
l-40 43 0 115 c0 102 -2 118 -21 142 l-20 26 150 0 c82 0 152 -4 155 -9z
m-1141 -284 l5 -49 -34 33 c-19 18 -34 35 -34 39 0 9 55 40 57 32 1 -4 3 -29
6 -55z m2097 -45 l85 -55 -90 -18 c-52 -11 -119 -33 -160 -54 -98 -49 -137
-86 -161 -152 l-13 -38 -1 33 c0 26 15 51 80 129 l80 96 0 84 0 84 48 -27 c26
-15 85 -52 132 -82z m-2272 -169 l-57 -57 -30 28 c-27 26 -28 30 -15 54 8 15
14 32 14 39 0 7 5 35 11 64 l11 52 62 -62 61 -61 -57 -57z m-318 133 c0 -2 -8
-10 -17 -17 -16 -13 -17 -12 -4 4 13 16 21 21 21 13z m1750 -206 c18 -18 20
-33 20 -132 l0 -113 -24 50 c-28 60 -56 87 -116 114 -62 28 -141 27 -205 -3
-60 -28 -87 -56 -114 -116 l-21 -45 0 113 c0 160 -12 152 240 152 187 0 201
-1 220 -20z m1123 5 c73 -19 153 -60 167 -84 16 -31 12 -32 -15 -6 -21 22 -33
25 -95 25 -62 0 -74 -3 -95 -25 -24 -23 -25 -28 -25 -175 0 -147 -1 -152 -25
-175 -15 -16 -36 -25 -55 -25 -19 0 -40 9 -55 25 -24 23 -25 28 -25 175 0 147
-1 152 -25 175 -21 22 -33 25 -95 25 -62 0 -74 -3 -95 -25 -27 -26 -31 -25
-15 6 13 24 93 65 163 84 69 18 219 19 290 0z m-3238 -63 c11 -10 29 -29 40
-42 11 -14 -1 -6 -27 18 -26 23 -54 42 -62 42 -8 0 -17 4 -21 10 -9 14 47 -8
70 -28z m3670 16 c-11 -6 -37 -27 -59 -47 -33 -31 -36 -32 -21 -9 17 27 71 68
90 68 6 -1 1 -6 -10 -12z m-1295 -58 l0 -40 95 0 c87 0 98 2 119 23 l24 24 4
-54 c8 -96 63 -145 168 -151 l70 -4 0 -57 c0 -31 3 -65 6 -77 5 -18 0 -22 -36
-28 -23 -4 -54 -13 -69 -20 -41 -22 -99 -86 -112 -123 l-11 -35 -45 51 c-101
116 -290 161 -437 105 -10 -4 18 37 63 91 l81 98 0 119 0 118 40 0 40 0 0 -40z
m-2356 -65 c-14 -19 -29 -35 -31 -35 -5 0 7 18 36 53 26 31 23 18 -5 -18z
m3606 -5 c30 -43 18 -37 -16 7 -15 20 -23 33 -16 29 6 -3 21 -20 32 -36z
m-3262 -157 l-57 -57 -30 28 c-27 26 -28 30 -15 54 8 15 14 32 14 39 0 7 5 35
11 64 l11 52 62 -62 61 -61 -57 -57z m3323 70 c13 -16 12 -17 -3 -4 -17 13
-22 21 -14 21 2 0 10 -8 17 -17z m-125 -140 c67 -22 119 -56 182 -117 70 -67
109 -123 133 -193 18 -52 26 -99 11 -61 -11 27 -82 99 -108 108 -13 5 -32 7
-41 3 -10 -3 -63 -50 -119 -104 -85 -83 -106 -99 -133 -99 -18 0 -39 8 -51 20
-12 12 -20 33 -20 51 0 27 16 48 102 135 122 125 126 139 57 210 -24 25 -53
50 -64 54 -36 15 0 10 51 -7z m-2906 -108 l115 -115 -118 -118 -117 -117 -117
117 -118 118 115 115 c63 63 117 115 120 115 3 0 57 -52 120 -115z m-800 87
c0 -5 -7 -17 -15 -28 -14 -18 -14 -17 -4 9 12 27 19 34 19 19z m-103 -87 c21
-8 30 -14 20 -15 -25 0 -69 24 -92 51 l-20 24 27 -23 c14 -13 43 -30 65 -37z
m4213 51 c0 -2 -8 -10 -17 -17 -16 -13 -17 -12 -4 4 13 16 21 21 21 13z m-640
-173 c-28 -30 -50 -59 -50 -65 0 -5 -21 12 -47 38 -43 44 -45 49 -27 58 10 6
37 29 59 51 l40 41 37 -35 37 -34 -49 -54z m-3220 -28 l125 -125 -48 0 -47 0
0 40 0 40 -121 0 c-93 0 -120 3 -116 13 21 54 71 157 76 157 3 0 62 -56 131
-125z m-390 46 c14 -10 26 -27 28 -37 2 -14 -1 -12 -10 6 -8 16 -32 32 -63 43
-41 15 -44 17 -15 12 19 -3 46 -14 60 -24z m2654 -23 c26 -8 60 -31 91 -63 91
-90 99 -197 25 -306 -16 -24 -30 -56 -30 -71 0 -14 20 -58 44 -97 88 -144 130
-336 108 -505 -47 -372 -326 -651 -698 -698 -233 -30 -465 48 -641 215 -175
166 -265 393 -250 626 7 116 29 197 82 306 99 205 289 360 515 421 73 19 255
25 357 10 61 -8 62 -8 90 23 113 128 144 148 227 150 21 1 57 -4 80 -11z m604
-28 c72 -34 169 -121 217 -195 34 -53 71 -152 61 -162 -3 -4 -6 0 -6 8 0 8
-22 37 -50 64 -75 74 -88 71 -214 -53 -87 -86 -108 -102 -135 -102 -18 0 -39
8 -51 20 -12 12 -20 33 -20 51 0 27 16 48 102 135 122 125 126 139 57 210 -24
25 -53 50 -64 55 -16 7 -13 8 10 4 17 -3 58 -19 93 -35z m-1969 -173 l100 -99
-49 -64 c-141 -184 -211 -409 -197 -634 l6 -96 -234 -234 -235 -235 -58 58
-57 57 -57 -57 c-43 -43 -60 -54 -70 -46 -7 6 -40 16 -73 23 -108 21 -107 12
-6 114 l91 92 -53 52 c-29 28 -57 52 -62 52 -6 0 -60 -49 -120 -110 -60 -60
-112 -110 -116 -110 -5 0 -28 98 -55 228 l-4 22 407 0 c404 0 407 0 430 22 22
21 23 26 23 200 l0 178 -40 0 -40 0 0 184 c0 182 0 184 23 190 12 3 92 75 177
161 85 85 158 154 162 153 4 -2 52 -47 107 -101z m1714 1 c-20 -22 -19 -23
-28 27 l-7 40 26 -24 c24 -23 25 -26 9 -43z m-2743 -108 l0 -80 -40 0 c-30 0
-40 4 -40 16 0 8 -18 42 -40 74 -22 32 -40 61 -40 64 0 4 36 6 80 6 l80 0 0
-80z m3745 20 c18 -20 17 -20 -20 -20 -37 0 -38 0 -20 20 10 11 19 20 20 20 1
0 10 -9 20 -20z m-4078 -42 c-3 -8 -6 -5 -6 6 -1 11 2 17 5 13 3 -3 4 -12 1
-19z m-10 -40 c-3 -8 -6 -5 -6 6 -1 11 2 17 5 13 3 -3 4 -12 1 -19z m-10 -50
c-3 -8 -6 -5 -6 6 -1 11 2 17 5 13 3 -3 4 -12 1 -19z m-10 -50 c-3 -8 -6 -5
-6 6 -1 11 2 17 5 13 3 -3 4 -12 1 -19z m4186 -13 c73 -19 153 -60 167 -84 16
-31 12 -32 -15 -6 -21 22 -33 25 -95 25 -62 0 -74 -3 -95 -25 -24 -23 -25 -28
-25 -175 0 -147 -1 -152 -25 -175 -15 -16 -36 -25 -55 -25 -19 0 -40 9 -55 25
-24 23 -25 28 -25 175 0 147 -1 152 -25 175 -21 22 -33 25 -95 25 -62 0 -74
-3 -95 -25 -27 -26 -31 -25 -15 6 13 24 93 65 163 84 69 18 219 19 290 0z
m-4196 -57 c-3 -7 -5 -2 -5 12 0 14 2 19 5 13 2 -7 2 -19 0 -25z m3551 -47
c15 -8 22 -21 22 -41 0 -61 39 -121 93 -145 25 -10 12 -13 -113 -24 -163 -13
-291 -31 -303 -42 -7 -5 8 -149 16 -155 1 -1 43 5 92 12 50 7 136 17 193 22
l102 8 0 -42 c0 -49 27 -40 -239 -84 -193 -32 -214 -39 -231 -70 -13 -25 -13
-296 0 -321 32 -59 453 -207 723 -253 20 -4 37 -8 37 -10 0 -12 -23 -66 -28
-66 -4 0 -112 38 -240 84 l-234 84 -13 -32 c-20 -48 -39 -116 -34 -121 3 -2
131 -50 284 -105 153 -55 280 -102 283 -104 2 -3 -11 -26 -29 -53 l-33 -48 -7
31 c-9 48 -16 54 -113 99 l-91 43 -32 -61 c-18 -34 -32 -68 -33 -75 0 -7 25
-24 55 -39 l55 -27 0 -53 c0 -29 -3 -53 -6 -53 -3 0 -24 13 -47 29 -136 93
-418 195 -697 252 -89 18 -134 31 -132 39 1 7 13 27 25 45 l22 32 110 -22
c122 -26 272 -71 383 -117 40 -17 74 -29 76 -27 2 2 15 35 29 73 21 54 24 72
14 78 -26 16 -264 100 -365 128 -59 17 -148 36 -199 43 l-91 12 64 68 c74 77
123 150 170 252 104 225 110 509 17 752 -4 10 4 8 29 -7 86 -50 190 -35 272
41 l51 47 35 -33 c19 -18 45 -38 58 -44z m-3571 -143 c-2 -13 -4 -3 -4 22 0
25 2 35 4 23 2 -13 2 -33 0 -45z m393 -58 l0 -80 -40 0 c-30 0 -40 4 -40 16 0
8 -18 42 -40 74 -22 32 -40 61 -40 64 0 4 36 6 80 6 l80 0 0 -80z m3440 -27
c-1 -24 -2 -25 -11 -11 -5 10 -17 22 -27 27 -14 9 -13 10 11 11 23 0 27 -4 27
-27z m75 -218 c73 -73 151 -92 246 -60 55 19 123 85 143 140 l15 40 0 -60 c1
-66 -34 -320 -49 -360 -9 -24 -13 -25 -100 -25 l-90 0 0 -57 c0 -32 -3 -68 -6
-80 -6 -22 -4 -23 60 -23 36 0 66 -2 66 -4 0 -1 -5 -16 -10 -32 -12 -34 -10
-34 -190 -8 -186 28 -350 72 -537 146 -82 32 -103 45 -103 60 0 13 5 18 13 14
159 -72 368 -138 484 -152 59 -7 56 -11 68 97 l6 57 -48 6 c-115 17 -356 93
-332 106 8 4 66 15 129 25 157 25 160 28 161 177 1 98 3 108 12 78 6 -19 34
-58 62 -85z m-3908 -17 c-2 -13 -4 -3 -4 22 0 25 2 35 4 23 2 -13 2 -33 0 -45z
m4470 0 c-2 -13 -4 -3 -4 22 0 25 2 35 4 23 2 -13 2 -33 0 -45z m-10 -95 c-3
-10 -5 -4 -5 12 0 17 2 24 5 18 2 -7 2 -21 0 -30z m-4440 -75 c-3 -7 -5 -2 -5
12 0 14 2 19 5 13 2 -7 2 -19 0 -25z m4430 0 c-3 -7 -5 -2 -5 12 0 14 2 19 5
13 2 -7 2 -19 0 -25z m-4420 -60 c-3 -7 -5 -2 -5 12 0 14 2 19 5 13 2 -7 2
-19 0 -25z m4410 0 c-3 -7 -5 -2 -5 12 0 14 2 19 5 13 2 -7 2 -19 0 -25z
m-3071 -110 c-3 -14 -428 -743 -460 -790 -11 -15 -15 -14 -48 6 l-37 22 105
177 c57 98 104 181 104 185 0 4 -24 20 -53 36 -28 16 -58 34 -65 39 -10 8 36
60 200 224 l213 214 23 -48 c12 -26 20 -55 18 -65z m-1329 60 c-3 -8 -6 -5 -6
6 -1 11 2 17 5 13 3 -3 4 -12 1 -19z m4390 0 c-3 -8 -6 -5 -6 6 -1 11 2 17 5
13 3 -3 4 -12 1 -19z m-4370 -90 c-3 -8 -6 -5 -6 6 -1 11 2 17 5 13 3 -3 4
-12 1 -19z m23 -76 c0 -11 -11 -24 -25 -30 -37 -17 -45 -14 -12 4 15 8 27 21
27 29 0 8 2 15 5 15 3 0 5 -8 5 -18z m4340 -27 c14 -8 21 -14 15 -14 -5 0 -21
6 -35 14 -14 8 -20 14 -15 14 6 0 21 -6 35 -14z m-4417 -22 c-7 -2 -21 -2 -30
0 -10 3 -4 5 12 5 17 0 24 -2 18 -5z m4490 0 c-7 -2 -21 -2 -30 0 -10 3 -4 5
12 5 17 0 24 -2 18 -5z m-2951 -147 c-10 -17 -123 -210 -252 -428 l-233 -397
-39 21 -38 22 18 30 c10 17 123 210 252 428 l234 397 38 -21 38 -22 -18 -30z
m-1140 17 c21 -3 42 -11 46 -17 5 -6 20 -65 32 -131 26 -134 45 -165 101 -165
28 0 51 18 173 138 77 75 133 126 124 112 -104 -172 -247 -423 -250 -440 -7
-47 -219 276 -298 454 l-30 69 32 -7 c18 -4 50 -9 70 -13z m2322 -148 c-52
-78 -60 -85 -89 -85 -18 0 -42 -8 -54 -17 -22 -19 -111 -267 -111 -311 0 -12
11 -34 25 -48 25 -25 26 -25 148 -18 126 7 243 -3 394 -33 l83 -16 72 -96 c39
-53 82 -110 95 -128 l24 -31 -46 -32 c-25 -17 -50 -30 -55 -28 -5 2 -61 76
-125 166 -82 114 -120 160 -128 154 -7 -5 -34 -26 -62 -47 -27 -21 -49 -43
-47 -49 2 -5 53 -79 113 -163 60 -84 109 -157 109 -162 0 -7 -17 -16 -96 -48
-6 -2 -19 23 -29 57 -16 54 -21 61 -40 56 -12 -3 -66 -10 -120 -16 -127 -15
-188 -38 -305 -116 -120 -80 -181 -102 -310 -110 l-100 -7 0 -39 c0 -35 -2
-38 -27 -38 -93 1 -319 86 -367 139 -18 20 -17 22 63 158 90 154 90 142 0 192
l-56 31 -73 -125 -74 -124 -37 21 c-21 12 -37 24 -35 27 7 15 489 836 493 840
1 2 37 -13 78 -34 67 -33 77 -36 88 -23 9 12 42 17 137 21 162 8 256 33 400
106 63 32 116 59 118 60 1 0 -23 -37 -54 -84z m-963 38 c16 -10 28 -22 27 -28
-2 -6 -95 -167 -207 -358 l-204 -346 -38 22 -38 22 27 46 c248 425 389 659
395 659 5 0 22 -8 38 -17z m1109 -309 c186 -28 346 -71 533 -143 84 -34 107
-47 107 -62 0 -10 -2 -19 -5 -19 -2 0 -40 16 -84 35 -196 86 -398 133 -613
142 -76 3 -138 7 -138 8 0 1 5 15 10 31 12 34 9 34 190 8z m-2058 -241 c40
-22 46 -29 38 -44 -6 -10 -14 -20 -18 -23 -5 -3 -42 29 -83 71 -72 73 -73 75
-29 49 25 -15 66 -38 92 -53z m-349 37 c-22 -10 -52 -33 -67 -51 -15 -19 -23
-25 -18 -14 18 36 99 97 115 88 5 -3 -9 -13 -30 -23z m3585 -24 c13 -12 28
-30 34 -41 6 -11 -4 -3 -21 17 -17 20 -47 42 -66 49 -19 7 -32 16 -29 21 6 9
46 -14 82 -46z m-3512 -8 l29 -33 -32 29 c-31 28 -38 36 -30 36 2 0 16 -15 33
-32z m3424 29 c0 -2 -12 -14 -27 -28 l-28 -24 24 28 c23 25 31 32 31 24z
m-3310 -152 c47 -47 82 -85 80 -85 -3 0 -43 38 -90 85 -47 47 -82 85 -80 85 3
0 43 -38 90 -85z m2839 -73 c-21 -14 -24 -13 -50 19 -41 49 -36 54 21 23 49
-27 50 -27 29 -42z m301 43 c-7 -9 -40 -38 -74 -66 -60 -51 -60 -50 9 14 69
65 90 82 65 52z m-3014 -87 l29 -33 -32 29 c-31 28 -38 36 -30 36 2 0 16 -15
33 -32z m59 -48 c10 -11 16 -20 13 -20 -3 0 -13 9 -23 20 -10 11 -16 20 -13
20 3 0 13 -9 23 -20z m449 -33 c16 -12 17 -17 6 -38 -7 -13 -14 -25 -15 -27
-2 -2 -28 11 -58 28 l-55 31 16 29 16 28 36 -18 c19 -10 43 -25 54 -33z m2366
50 c0 -2 -10 -12 -22 -23 l-23 -19 19 23 c18 21 26 27 26 19z m-2720 -94 c0
-7 -58 36 -66 49 -4 7 9 -1 29 -16 20 -16 37 -30 37 -33z m2665 47 c-3 -5 -20
-19 -38 -30 -32 -22 -32 -22 3 9 37 32 45 37 35 21z m-110 -80 c-3 -5 -16 -15
-28 -21 -19 -9 -19 -8 3 10 28 23 34 26 25 11z m-2438 -117 c-8 -15 -28 -39
-43 -53 -27 -23 -26 -23 3 12 17 20 34 46 38 58 4 12 9 19 12 17 2 -3 -2 -18
-10 -34z m2412 -48 l26 -30 -28 25 c-28 24 -57 70 -57 87 1 4 8 -5 17 -22 8
-16 27 -43 42 -60z m-348 -62 c12 -16 12 -17 -1 -7 -8 6 -22 14 -30 17 -13 5
-12 6 1 6 9 1 23 -7 30 -16z m-1671 -11 c0 -5 -7 -17 -15 -28 -14 -18 -14 -17
-4 9 12 27 19 34 19 19z m105 -32 c13 -6 15 -9 5 -9 -8 0 -22 4 -30 9 -18 12
-2 12 25 0z m82 -26 c-3 -3 -12 -4 -19 -1 -8 3 -5 6 6 6 11 1 17 -2 13 -5z
m1520 -31 c-3 -10 -5 -4 -5 12 0 17 2 24 5 18 2 -7 2 -21 0 -30z m-360 11 c-3
-3 -12 -4 -19 -1 -8 3 -5 6 6 6 11 1 17 -2 13 -5z m-1390 -36 c-3 -7 -5 -2 -5
12 0 14 2 19 5 13 2 -7 2 -19 0 -25z m350 26 c-3 -3 -12 -4 -19 -1 -8 3 -5 6
6 6 11 1 17 -2 13 -5z m40 -10 c-3 -3 -12 -4 -19 -1 -8 3 -5 6 6 6 11 1 17 -2
13 -5z m910 0 c-3 -3 -12 -4 -19 -1 -8 3 -5 6 6 6 11 1 17 -2 13 -5z m-854
-11 c-7 -2 -19 -2 -25 0 -7 3 -2 5 12 5 14 0 19 -2 13 -5z m804 1 c-3 -3 -12
-4 -19 -1 -8 3 -5 6 6 6 11 1 17 -2 13 -5z m-744 -11 c-7 -2 -19 -2 -25 0 -7
3 -2 5 12 5 14 0 19 -2 13 -5z m680 0 c-7 -2 -19 -2 -25 0 -7 3 -2 5 12 5 14
0 19 -2 13 -5z m-605 -10 c-10 -2 -26 -2 -35 0 -10 3 -2 5 17 5 19 0 27 -2 18
-5z m535 0 c-7 -2 -21 -2 -30 0 -10 3 -4 5 12 5 17 0 24 -2 18 -5z m-456 -9
c-3 -3 -12 -4 -19 -1 -8 3 -5 6 6 6 11 1 17 -2 13 -5z m356 -1 c-13 -2 -33 -2
-45 0 -13 2 -3 4 22 4 25 0 35 -2 23 -4z"/>
<path d="M2365 3108 c-90 -16 -207 -81 -279 -154 -220 -219 -218 -574 4 -793
108 -106 232 -156 390 -156 76 0 120 5 160 19 158 53 273 152 340 290 203 419
-155 881 -615 794z m210 -162 c158 -42 268 -160 295 -319 30 -170 -58 -346
-210 -420 -245 -120 -522 22 -572 291 -22 120 21 252 111 342 101 101 244 142
376 106z"/>
<path d="M3465 1900 c-16 -26 -45 -134 -38 -140 11 -10 120 -50 137 -50 12 0
73 137 65 144 -5 3 -149 56 -154 56 -2 0 -7 -4 -10 -10z"/>
<path d="M2157 1163 c-52 -88 -54 -82 34 -132 l57 -31 46 77 c51 88 53 83 -35
132 l-57 32 -45 -78z"/>
</g>
</svg>
