<?xml version="1.0" standalone="no"?>
<!DOCTYPE svg PUBLIC "-//W3C//DTD SVG 20010904//EN"
 "http://www.w3.org/TR/2001/REC-SVG-20010904/DTD/svg10.dtd">
<svg version="1.0" xmlns="http://www.w3.org/2000/svg"
 width="current" height="current" viewBox="0 0 512.000000 512.000000"
 preserveAspectRatio="xMidYMid meet">

<g transform="translate(0.000000,512.000000) scale(0.100000,-0.100000)"
fill="current" stroke="none">
<path d="M2205 4899 c-834 -63 -1522 -292 -1871 -622 -113 -106 -174 -188
-235 -312 -65 -135 -92 -248 -93 -395 -1 -111 0 -118 32 -182 37 -75 99 -136
166 -164 l43 -18 -29 -62 c-47 -101 -48 -235 -1 -327 13 -26 12 -30 -21 -71
-144 -175 -129 -466 30 -589 43 -33 54 -48 54 -70 0 -16 11 -62 25 -103 30
-89 30 -84 6 -84 -38 0 -159 -70 -205 -120 -99 -106 -123 -222 -92 -438 38
-258 145 -472 319 -640 72 -68 97 -76 141 -41 45 36 36 70 -40 153 -118 126
-195 259 -239 411 -27 96 -49 277 -39 333 14 83 80 155 171 188 28 10 103 13
286 14 l247 0 0 -188 c0 -104 5 -215 11 -247 22 -121 102 -226 214 -281 55
-26 69 -29 165 -29 99 0 110 2 172 33 85 42 167 128 199 209 19 49 23 84 28
238 l6 179 44 8 c45 8 121 50 121 68 0 6 89 10 241 10 l241 0 72 -66 c129
-120 234 -164 391 -164 158 0 276 52 399 174 l56 56 762 0 c480 0 776 -4 799
-10 93 -26 172 -112 184 -200 9 -66 32 -93 76 -92 24 1 41 9 58 28 21 25 23
34 17 83 -15 124 -97 235 -219 296 -38 19 -78 35 -88 35 -24 0 -24 -5 6 84 14
41 25 85 25 98 0 16 10 30 29 41 40 23 85 83 119 154 25 53 27 68 27 183 0
116 -2 129 -28 184 -15 33 -43 79 -62 102 l-35 42 22 49 c18 39 23 67 23 143
0 86 -3 101 -31 160 l-31 66 43 18 c67 28 129 89 166 164 32 65 33 70 32 187
-2 196 -62 376 -178 539 -62 87 -218 233 -327 306 -247 165 -601 299 -1001
380 -143 29 -331 60 -363 60 -26 0 -65 -47 -65 -78 0 -54 30 -68 205 -97 244
-41 412 -81 610 -146 624 -205 959 -539 968 -964 1 -67 -3 -98 -15 -120 -21
-39 -66 -81 -101 -94 -20 -8 -716 -11 -2288 -11 -2485 0 -2296 -5 -2356 63
-47 53 -56 99 -44 211 49 439 388 742 1057 945 455 139 1099 209 1626 178
l138 -8 25 25 c31 31 32 67 3 101 -21 24 -32 26 -148 35 -147 11 -499 11 -655
-1z m115 -1835 c-69 -69 -152 -143 -185 -165 -87 -57 -195 -89 -303 -89 -190
0 -289 50 -486 242 l-141 137 620 1 620 0 -125 -126z m-1895 -451 c60 -28 60
-28 330 -33 177 -3 277 -9 290 -17 28 -16 52 -43 63 -73 l10 -25 -87 0 c-103
0 -106 -1 -332 -152 l-158 -106 -65 5 c-103 9 -181 63 -211 147 -31 89 -14
206 41 278 24 31 28 33 43 19 9 -8 43 -28 76 -43z m4395 18 c87 -123 54 -337
-62 -397 -58 -30 -106 -15 -214 66 -150 112 -223 136 -327 106 -70 -20 -129
-65 -186 -140 -51 -68 -92 -96 -140 -96 -40 0 -65 14 -284 157 -89 59 -177
112 -196 120 -55 23 -153 18 -214 -10 -28 -14 -124 -84 -211 -156 -163 -134
-195 -151 -253 -136 -16 3 -102 62 -193 130 -214 160 -253 180 -345 180 -89
-1 -134 -21 -242 -109 -45 -36 -85 -66 -89 -66 -3 0 -5 51 -3 114 5 132 12
147 87 166 92 24 382 28 1502 22 l1136 -5 69 21 c39 12 81 31 95 42 34 27 45
25 70 -9z m-1412 -358 c35 -21 62 -42 61 -48 -1 -5 -110 -116 -243 -245 -207
-202 -250 -239 -304 -263 -119 -54 -255 -45 -362 23 -25 16 -148 133 -274 259
l-230 230 29 23 c47 38 68 47 108 48 50 0 53 -2 249 -147 193 -143 238 -166
323 -166 87 0 137 26 302 161 224 183 237 188 341 125z"/>
<path d="M2497 4561 c-83 -54 -149 -249 -117 -345 36 -109 154 -163 255 -117
110 50 140 162 85 319 -49 138 -141 197 -223 143z m89 -228 c19 -64 12 -86
-29 -91 -18 -2 -27 2 -32 17 -7 24 21 131 35 131 5 0 17 -26 26 -57z"/>
<path d="M1332 4544 c-59 -29 -156 -129 -183 -189 -24 -51 -23 -99 0 -150 51
-111 173 -149 273 -86 72 46 108 135 108 266 0 90 -24 145 -73 168 -47 23 -64
21 -125 -9z m36 -238 c-14 -52 -35 -73 -62 -63 -31 12 -19 60 26 108 36 38 43
41 45 24 2 -11 -2 -42 -9 -69z"/>
<path d="M3655 4543 c-64 -17 -101 -79 -90 -151 17 -115 99 -248 172 -278 68
-29 169 -9 214 42 55 63 66 166 24 228 -36 53 -70 80 -150 120 -69 35 -132 49
-170 39z m153 -205 c43 -30 53 -56 27 -78 -23 -19 -50 -3 -79 49 -43 79 -32
85 52 29z"/>
<path d="M1945 4055 c-49 -17 -121 -94 -161 -173 -23 -46 -29 -70 -29 -124 0
-59 3 -70 31 -105 33 -42 104 -83 144 -83 81 0 158 52 186 125 12 34 15 67 12
142 -5 126 -29 182 -92 212 -49 24 -40 24 -91 6z m35 -244 c0 -61 -11 -81 -46
-81 -31 0 -39 32 -18 72 48 93 64 96 64 9z"/>
<path d="M3057 4042 c-46 -28 -70 -92 -70 -186 0 -113 23 -184 72 -229 70 -63
143 -70 228 -21 50 29 81 76 89 138 6 39 2 56 -25 110 -77 157 -209 241 -294
188z m159 -259 c9 -34 -2 -53 -30 -53 -29 0 -46 40 -46 109 l1 46 35 -40 c19
-21 37 -49 40 -62z"/>
<path d="M4962 1293 c-12 -10 -33 -54 -47 -98 -160 -484 -651 -773 -1404 -826
-214 -15 -1921 -6 -2046 10 -259 34 -483 97 -679 189 -112 53 -119 55 -145 41
-14 -8 -32 -27 -39 -42 -21 -44 1 -76 83 -119 222 -118 535 -201 860 -228 98
-8 433 -10 1105 -8 941 4 968 5 1104 26 666 108 1096 387 1278 829 22 53 42
119 45 148 5 48 3 53 -22 73 -33 27 -66 28 -93 5z"/>
</g>
</svg>
