<?xml version="1.0" standalone="no"?>
<!DOCTYPE svg PUBLIC "-//W3C//DTD SVG 20010904//EN"
 "http://www.w3.org/TR/2001/REC-SVG-20010904/DTD/svg10.dtd">
<svg version="1.0" xmlns="http://www.w3.org/2000/svg"
 width="current" height="current" viewBox="0 0 512.000000 512.000000"
 preserveAspectRatio="xMidYMid meet">

<g transform="translate(0.000000,512.000000) scale(0.100000,-0.100000)"
fill="current" stroke="none">
<path d="M3750 4142 c-13 -11 -25 -36 -31 -66 -5 -26 -18 -60 -29 -76 -50 -70
-63 -168 -34 -253 33 -98 106 -136 159 -82 31 30 32 62 4 115 -25 48 -21 94
11 139 28 41 50 106 50 153 0 73 -76 114 -130 70z"/>
<path d="M4145 4135 c-15 -14 -25 -36 -25 -52 0 -16 -9 -45 -20 -66 -27 -49
-25 -83 5 -112 53 -54 126 -16 159 82 34 100 7 173 -64 173 -19 0 -40 -9 -55
-25z"/>
<path d="M1190 3985 c-107 -86 -203 -165 -212 -177 -15 -17 -18 -41 -18 -159
l0 -139 -24 0 c-34 0 -158 -43 -209 -74 -176 -102 -293 -276 -320 -472 -8 -57
-16 -84 -25 -84 -7 0 -24 -11 -37 -25 -25 -24 -25 -26 -25 -215 0 -189 0 -191
25 -215 13 -14 33 -25 45 -25 11 0 20 -5 20 -11 0 -6 31 -309 70 -674 39 -365
70 -666 70 -669 0 -3 -88 -6 -195 -6 l-195 0 0 -80 0 -80 2400 0 2400 0 0 80
0 80 -198 0 -198 0 33 68 c23 46 35 87 40 134 5 62 4 68 -20 92 -26 26 -26 26
-198 26 l-172 0 6 58 c3 31 11 121 18 199 l12 142 206 3 c229 3 251 9 317 80
71 74 69 62 69 478 0 416 2 404 -69 478 -62 67 -94 76 -265 80 l-153 4 7 93
c7 92 6 95 -19 120 l-25 25 -416 0 -415 0 0 38 c0 152 -129 282 -280 282 -151
0 -280 -130 -280 -282 l0 -38 -55 0 c-46 0 -60 -4 -80 -25 l-25 -24 0 -271 0
-271 25 -24 c23 -24 30 -25 143 -25 l119 0 7 -37 c3 -21 6 -57 6 -80 l0 -43
-718 0 -718 0 4 40 c3 32 8 40 24 40 10 0 30 11 43 25 25 24 25 26 25 215 0
189 0 191 -25 215 -13 14 -30 25 -38 25 -9 0 -17 27 -26 87 -31 215 -159 390
-356 489 -39 19 -99 40 -133 47 l-62 12 0 102 0 102 178 142 c97 78 181 145
186 150 7 6 -75 120 -93 126 -3 2 -94 -67 -201 -152z m-230 -870 l0 -235 -200
0 -200 0 0 23 c0 41 30 147 54 195 32 64 104 142 168 183 48 31 137 68 166 69
9 0 12 -53 12 -235z m288 194 c77 -35 178 -132 216 -207 26 -51 56 -157 56
-199 l0 -23 -200 0 -200 0 0 236 0 236 33 -7 c17 -4 60 -20 95 -36z m2075 -67
c21 -21 31 -42 34 -76 l6 -46 -123 0 -123 0 6 46 c5 47 33 88 72 105 37 16 96
3 128 -29z m-1723 -602 l0 -80 -560 0 -560 0 0 80 0 80 560 0 560 0 0 -80z
m2800 -320 l0 -80 -35 0 c-39 0 -39 -1 -29 99 7 59 8 61 35 61 l29 0 0 -80z
m-1200 -229 c0 -248 -124 -479 -330 -615 l-55 -36 -334 0 -335 0 -63 41 c-35
23 -94 75 -132 115 -118 127 -178 272 -188 457 l-6 107 722 0 721 0 0 -69z
m446 35 l34 -34 0 -172 0 -172 -34 -34 -34 -34 -172 0 c-160 0 -172 1 -165 18
4 9 18 44 30 77 l23 60 96 3 96 3 0 79 0 80 -80 0 -80 0 0 80 0 80 126 0 126
0 34 -34z m-1926 -487 c23 -40 67 -100 96 -135 l55 -64 -152 0 -151 0 5 33 c3
17 13 109 22 202 9 94 19 177 21 185 3 7 18 -23 33 -68 16 -45 48 -114 71
-153z m1460 -159 l0 -40 -46 0 -46 0 33 39 c44 51 59 52 59 1z m175 -237 c-14
-76 -60 -139 -130 -176 -40 -22 -42 -22 -745 -22 -703 0 -705 0 -745 22 -70
37 -116 100 -130 176 l-7 37 882 0 882 0 -7 -37z m1105 -48 c0 -15 -31 -63
-57 -86 -70 -66 -55 -64 -531 -67 l-433 -3 25 38 c13 21 30 57 37 81 l12 42
474 0 c260 0 473 -2 473 -5z"/>
<path d="M1945 1975 c-16 -15 -25 -36 -25 -55 0 -19 9 -40 25 -55 23 -24 31
-25 135 -25 104 0 112 1 135 25 16 15 25 36 25 55 0 19 -9 40 -25 55 -23 24
-31 25 -135 25 -104 0 -112 -1 -135 -25z"/>
<path d="M2345 1975 c-16 -15 -25 -36 -25 -55 0 -19 9 -40 25 -55 l24 -25 231
0 231 0 24 25 c16 15 25 36 25 55 0 19 -9 40 -25 55 l-24 25 -231 0 -231 0
-24 -25z"/>
<path d="M4086 3819 c-36 -28 -35 -81 1 -134 36 -52 38 -116 5 -162 -55 -78
-68 -178 -27 -218 51 -52 121 -22 136 57 4 26 19 64 33 85 72 112 56 258 -39
358 -38 41 -70 45 -109 14z"/>
<path d="M3725 3565 c-45 -47 -78 -119 -83 -181 -4 -46 -1 -56 21 -78 53 -53
122 -24 138 57 4 26 20 64 34 84 34 51 34 105 -1 132 -39 31 -71 27 -109 -14z"/>
<path d="M2150 3342 c-13 -11 -25 -36 -31 -64 -4 -26 -19 -64 -33 -85 -72
-112 -56 -258 39 -358 38 -41 70 -45 109 -14 36 28 35 81 -1 134 -36 52 -38
116 -5 162 30 43 52 107 52 155 0 73 -76 114 -130 70z"/>
<path d="M2551 3343 c-26 -21 -53 -136 -40 -169 10 -28 47 -54 75 -54 52 0 94
69 94 154 0 70 -77 111 -129 69z"/>
<path d="M2486 3019 c-36 -28 -35 -81 1 -134 36 -52 38 -116 5 -162 -55 -78
-68 -178 -27 -218 51 -52 121 -22 136 57 4 26 19 64 33 85 72 112 56 258 -39
358 -38 41 -70 45 -109 14z"/>
<path d="M2100 2730 c-33 -36 -60 -108 -60 -162 0 -78 83 -116 135 -63 15 14
25 36 25 52 0 16 9 45 20 66 27 49 25 83 -5 112 -34 35 -79 33 -115 -5z"/>
</g>
</svg>
