<?xml version="1.0" standalone="no"?>
<!DOCTYPE svg PUBLIC "-//W3C//DTD SVG 20010904//EN"
 "http://www.w3.org/TR/2001/REC-SVG-20010904/DTD/svg10.dtd">
<svg version="1.0" xmlns="http://www.w3.org/2000/svg"
 width="current" height="current" viewBox="0 0 512.000000 512.000000"
 preserveAspectRatio="xMidYMid meet">

<g transform="translate(0.000000,512.000000) scale(0.100000,-0.100000)"
fill="current" stroke="none">
<path d="M3235 4390 c-347 -347 -635 -630 -641 -630 -6 0 -19 9 -29 20 -27 30
-167 117 -243 151 -37 17 -110 43 -162 57 -87 25 -110 27 -275 27 -192 -1
-278 -15 -392 -67 -42 -19 -71 -23 -238 -27 l-190 -6 -68 -33 c-120 -59 -185
-174 -175 -307 10 -114 27 -138 291 -402 133 -134 239 -243 237 -243 -32 -3
-330 -87 -406 -115 -239 -89 -407 -211 -444 -321 -8 -24 -30 -43 -93 -82 -99
-60 -178 -136 -215 -205 l-27 -52 0 -675 0 -675 24 -44 c95 -178 358 -322 787
-430 1203 -301 3087 -189 3749 224 81 50 172 141 206 205 l24 45 0 675 0 675
-26 50 c-37 69 -119 148 -214 206 -69 42 -83 56 -103 98 -47 103 -194 211
-399 291 -252 99 -701 189 -1068 215 -164 11 -163 11 -170 58 -4 23 -15 76
-25 117 -11 41 -16 78 -12 81 4 4 435 370 957 814 523 443 951 810 952 813 2
4 -21 33 -50 65 l-52 57 -940 -798 -939 -799 -57 86 c-32 48 -65 93 -73 100
-9 8 -16 19 -16 25 0 6 284 295 630 641 l630 630 -58 58 -57 57 -630 -630z
m-1125 -555 c77 -20 229 -90 295 -135 114 -78 264 -247 309 -347 l19 -42 -30
-25 c-17 -14 -203 -172 -413 -351 l-383 -326 -75 73 -74 73 5 95 c2 64 10 106
22 130 36 72 100 120 178 134 l37 7 0 81 0 81 -54 -6 c-158 -16 -311 -161
-340 -321 l-7 -39 -81 79 -80 79 5 95 c2 64 10 106 22 130 36 72 100 120 178
134 l37 7 0 81 0 81 -54 -6 c-160 -16 -296 -146 -342 -325 l-9 -34 -142 144
c-117 119 -143 151 -148 182 -16 81 35 164 111 185 21 6 115 11 207 11 145 0
173 3 205 19 44 23 161 59 229 71 72 13 298 4 373 -15z m700 -767 c27 -156 -5
-391 -70 -518 -18 -35 -20 -59 -20 -207 0 -186 -7 -227 -48 -271 -63 -67 -156
-64 -234 6 l-40 37 4 95 c3 63 11 107 23 130 36 72 100 120 178 134 l37 7 0
81 0 81 -54 -6 c-160 -16 -296 -145 -342 -325 l-9 -33 -105 106 c-92 92 -103
107 -90 119 35 35 746 636 752 636 3 0 12 -33 18 -72z m540 -238 c467 -58 818
-157 1011 -286 111 -74 141 -146 90 -213 l-19 -25 -54 50 c-178 161 -624 286
-1213 339 -104 10 -191 18 -192 19 -1 1 1 35 4 75 l6 74 105 -7 c57 -4 176
-16 262 -26z m-1820 -75 l34 -35 -132 -133 -132 -132 57 -58 58 -57 132 132
133 133 51 -51 51 -51 -114 -97 c-62 -54 -113 -101 -113 -106 0 -10 87 -119
96 -120 3 0 58 45 123 100 64 55 120 100 124 100 4 0 110 -102 235 -228 l227
-227 -77 2 c-572 22 -1149 129 -1417 265 l-38 19 22 25 c27 28 176 106 239
125 23 7 45 18 48 25 2 7 -6 44 -18 82 l-22 70 -71 -25 c-110 -39 -223 -101
-283 -157 l-55 -50 -19 25 c-31 40 -33 74 -8 118 61 108 329 232 659 304 63
14 124 28 135 30 37 9 41 7 75 -28z m1649 -226 c52 -5 96 -11 98 -12 1 -2 -89
-94 -200 -205 l-202 -202 3 176 c3 146 7 183 23 220 l19 45 82 -6 c46 -3 125
-11 177 -16z m438 -59 c59 -11 116 -24 126 -28 14 -6 -28 -52 -220 -244 l-238
-238 -95 -9 c-52 -5 -133 -12 -180 -16 l-85 -6 280 281 c154 154 285 280 292
280 7 0 61 -9 120 -20z m401 -104 c90 -31 222 -100 252 -131 l22 -23 -32 -17
c-56 -29 -202 -82 -300 -110 -102 -29 -359 -85 -387 -85 -11 0 59 77 177 195
107 107 195 195 196 195 0 0 33 -11 72 -24z m-3538 -286 c0 -124 -3 -180 -11
-180 -6 0 -39 28 -73 63 -96 95 -96 139 0 235 34 34 67 62 73 62 8 0 11 -56
11 -180z m4244 118 c96 -96 96 -140 0 -235 -34 -35 -67 -63 -73 -63 -8 0 -11
56 -11 180 0 124 3 180 11 180 6 0 39 -28 73 -62z m-4011 -108 c446 -271 1564
-399 2567 -294 485 50 906 160 1127 294 36 22 67 40 69 40 2 0 4 -72 4 -160
l0 -160 -37 -15 c-538 -225 -1671 -329 -2610 -240 -463 44 -909 137 -1157 240
l-36 15 0 160 c0 88 2 160 4 160 2 0 33 -18 69 -40z m-325 -333 c206 -139 663
-270 1176 -337 344 -44 520 -54 996 -54 250 -1 479 3 508 7 l52 8 0 -520 0
-519 -97 -8 c-178 -16 -848 -9 -1073 10 -479 40 -846 106 -1147 205 -231 76
-406 177 -457 264 l-26 44 0 472 c0 375 3 471 13 465 6 -4 31 -21 55 -37z
m4391 -934 c-76 -158 -495 -322 -1066 -417 l-33 -5 0 518 0 518 103 17 c394
65 779 189 958 310 l54 36 3 -467 c2 -458 2 -467 -19 -510z m-1259 73 l0 -513
-37 -6 c-21 -4 -75 -9 -120 -13 l-83 -7 0 516 0 515 78 7 c42 4 82 8 87 10 6
2 25 4 43 4 l32 1 0 -514z"/>
<path d="M643 1333 c-12 -32 -25 -65 -28 -74 -5 -13 19 -25 132 -62 310 -104
725 -179 1164 -213 l87 -6 4 78 c3 44 4 80 3 81 0 1 -77 9 -170 18 -426 40
-843 121 -1084 211 -35 13 -68 24 -75 24 -6 0 -21 -26 -33 -57z"/>
<path d="M2240 1046 l0 -86 160 0 160 0 0 80 0 80 -92 0 c-51 0 -123 3 -160 7
l-68 6 0 -87z"/>
<path d="M1200 4940 c0 -34 -26 -85 -71 -142 -67 -85 -82 -128 -83 -238 -1
-111 11 -144 93 -254 32 -43 54 -84 57 -108 l7 -38 80 0 80 0 -7 52 c-10 70
-27 109 -86 187 -57 78 -70 108 -70 161 0 53 13 82 66 151 55 72 83 133 91
199 l6 50 -82 0 c-75 0 -81 -2 -81 -20z"/>
<path d="M1676 4922 c-3 -24 -25 -65 -57 -108 -82 -110 -94 -143 -93 -254 1
-110 16 -153 83 -238 45 -57 71 -108 71 -142 0 -18 6 -20 81 -20 l82 0 -6 50
c-8 66 -36 127 -91 199 -53 69 -66 98 -66 151 0 53 13 83 70 161 59 78 76 117
86 187 l7 52 -80 0 -80 0 -7 -38z"/>
<path d="M2160 4940 c0 -34 -26 -85 -71 -142 -67 -85 -82 -128 -83 -238 -1
-111 11 -144 93 -254 32 -43 54 -84 57 -108 l7 -38 80 0 80 0 -7 52 c-10 70
-27 109 -86 187 -57 78 -70 108 -70 161 0 53 13 82 66 151 55 72 83 133 91
199 l6 50 -82 0 c-75 0 -81 -2 -81 -20z"/>
</g>
</svg>
