<?xml version="1.0" standalone="no"?>
<!DOCTYPE svg PUBLIC "-//W3C//DTD SVG 20010904//EN"
 "http://www.w3.org/TR/2001/REC-SVG-20010904/DTD/svg10.dtd">
<svg version="1.0" xmlns="http://www.w3.org/2000/svg"
 width="current" height="current" viewBox="0 0 512.000000 512.000000"
 preserveAspectRatio="xMidYMid meet">

<g transform="translate(0.000000,512.000000) scale(0.100000,-0.100000)"
fill="current" stroke="none">
<path d="M4237 5106 c-128 -46 -224 -175 -302 -409 -29 -86 -53 -192 -93 -411
-5 -28 -17 -47 -45 -70 -35 -28 -46 -31 -105 -31 -61 0 -73 4 -139 43 -420
253 -1064 206 -1928 -140 -188 -75 -665 -310 -850 -418 -213 -125 -504 -321
-564 -381 -73 -74 -122 -140 -168 -229 l-38 -75 -3 -231 c-3 -263 5 -318 62
-433 171 -338 717 -665 1346 -805 232 -51 389 -69 620 -70 187 0 228 2 316 22
471 103 987 424 1522 946 250 244 512 552 633 745 l53 84 4 276 4 276 68 44
c170 109 345 262 413 361 117 169 99 315 -52 417 -2 1 6 25 18 52 44 104 13
220 -78 286 -90 66 -178 105 -237 105 -56 0 -115 -19 -146 -47 -16 -15 -24
-12 -111 46 -100 66 -128 72 -200 47z m-1003 -920 c55 -14 131 -42 170 -62
208 -108 181 -99 291 -99 108 0 145 12 214 71 l32 26 47 -33 c301 -212 370
-265 364 -275 -14 -24 -223 -264 -349 -399 -577 -621 -1129 -1040 -1561 -1185
-162 -54 -222 -64 -407 -63 -618 1 -1302 227 -1685 555 -82 70 -116 111 -155
183 l-25 48 26 47 c14 26 51 79 82 119 54 68 69 79 262 195 844 507 1584 813
2155 891 64 9 161 13 270 11 143 -3 186 -8 269 -30z m1120 -960 c-123 -186
-284 -376 -518 -614 -397 -403 -749 -671 -1109 -842 -309 -147 -528 -188 -861
-161 -613 50 -1207 281 -1514 590 -138 139 -182 227 -190 380 l-4 93 83 -72
c252 -218 605 -388 1029 -495 280 -71 501 -99 770 -100 179 0 204 3 302 27
429 109 887 400 1419 904 158 149 401 403 537 561 l97 113 3 -157 3 -157 -47
-70z"/>
<path d="M2105 3975 c-15 -14 -25 -36 -25 -52 0 -50 25 -71 117 -99 47 -14
124 -42 171 -62 l84 -35 -139 -71 c-76 -40 -180 -97 -231 -129 -51 -31 -97
-57 -101 -57 -5 0 -41 15 -82 34 -93 43 -260 96 -300 96 -39 0 -79 -39 -79
-77 0 -51 24 -70 128 -103 53 -17 114 -38 136 -48 l38 -17 -88 -66 c-49 -37
-133 -105 -187 -153 -54 -47 -101 -86 -104 -86 -2 0 -43 22 -91 48 -164 90
-402 182 -473 182 -39 0 -79 -39 -79 -77 0 -52 23 -69 144 -108 62 -20 173
-65 246 -101 l131 -64 -80 -90 c-122 -136 -201 -246 -201 -281 0 -55 61 -93
114 -73 9 3 46 45 83 93 37 47 103 123 147 168 l78 83 54 -46 c73 -63 152
-162 213 -269 28 -49 59 -96 68 -102 46 -35 123 7 123 66 0 68 -118 251 -244
377 l-91 91 45 40 c68 61 249 203 312 247 l57 39 73 -46 c154 -96 280 -226
365 -376 27 -46 58 -95 70 -108 30 -32 76 -31 110 3 35 35 28 80 -27 175 -93
161 -239 321 -375 411 l-65 42 83 48 c45 27 150 83 232 125 114 57 157 75 175
70 42 -11 197 -145 264 -229 35 -44 85 -118 111 -164 27 -47 56 -89 66 -94 50
-27 119 12 119 66 0 92 -198 362 -354 482 -16 12 -26 25 -23 28 8 8 301 108
360 123 60 15 97 49 97 91 0 41 -39 80 -79 80 -34 0 -352 -102 -476 -153 l-79
-33 -106 53 c-120 59 -328 133 -378 133 -22 0 -41 -8 -57 -25z"/>
<path d="M4505 3015 c-39 -38 -33 -75 21 -137 26 -28 61 -81 78 -117 54 -117
47 -307 -19 -463 -41 -96 -41 -106 -1 -179 130 -237 12 -516 -248 -585 -28 -8
-68 -14 -89 -14 -27 0 -45 -7 -62 -25 -29 -28 -31 -53 -9 -115 21 -60 13 -132
-20 -175 -29 -38 -92 -71 -154 -81 -52 -8 -82 -42 -82 -93 0 -52 -23 -131 -56
-190 -76 -140 -250 -222 -410 -192 -37 6 -88 23 -115 36 -27 14 -60 25 -74 25
-35 0 -71 -38 -79 -85 -19 -97 -107 -210 -203 -259 -77 -38 -168 -52 -249 -37
-67 12 -129 38 -173 72 -50 39 -95 22 -147 -56 -162 -244 -506 -244 -668 0
-52 78 -97 95 -147 56 -175 -136 -442 -90 -570 98 -19 28 -42 53 -51 56 -10 4
-58 8 -108 9 -81 3 -98 7 -164 39 -123 62 -208 181 -222 312 -8 73 14 197 50
287 39 96 33 124 -33 158 -107 54 -181 213 -181 388 0 83 -81 122 -137 66 -25
-25 -26 -29 -20 -113 11 -171 64 -307 157 -402 l55 -56 -17 -58 c-53 -174 -46
-330 21 -470 84 -173 255 -292 448 -311 67 -7 69 -8 129 -69 164 -167 398
-218 611 -133 l58 23 61 -60 c110 -109 234 -160 394 -160 160 0 284 51 394
160 l61 60 58 -23 c164 -65 344 -50 502 42 69 41 157 135 196 209 l33 65 40
-14 c22 -8 72 -17 111 -21 226 -19 447 107 544 310 22 45 44 104 48 131 8 46
10 49 58 68 144 57 225 171 225 319 l0 57 53 17 c180 59 311 190 373 375 28
83 26 244 -4 330 -13 36 -29 76 -36 89 -11 20 -10 32 11 88 51 140 68 352 38
467 -22 84 -78 185 -139 250 -61 65 -99 74 -141 31z"/>
<path d="M4240 2560 l0 -80 80 0 80 0 0 80 0 80 -80 0 -80 0 0 -80z"/>
<path d="M4080 2227 c-49 -16 -133 -102 -148 -153 -19 -64 -15 -102 13 -129
49 -50 135 -15 135 55 0 41 39 80 80 80 41 0 80 -39 80 -80 0 -41 39 -80 80
-80 42 0 80 39 80 81 0 56 -23 110 -67 159 -65 72 -158 97 -253 67z"/>
<path d="M3600 1760 l0 -80 80 0 80 0 0 80 0 80 -80 0 -80 0 0 -80z"/>
<path d="M720 1520 l0 -80 80 0 80 0 0 80 0 80 -80 0 -80 0 0 -80z"/>
<path d="M2960 1440 l0 -80 80 0 80 0 0 80 0 80 -80 0 -80 0 0 -80z"/>
<path d="M3760 1360 l0 -80 80 0 80 0 0 80 0 80 -80 0 -80 0 0 -80z"/>
<path d="M903 1254 c-23 -23 -25 -31 -20 -82 10 -111 80 -212 182 -262 72 -35
198 -35 270 0 102 50 172 151 182 262 5 51 3 59 -20 82 -51 51 -137 17 -137
-54 0 -48 -24 -95 -66 -126 -31 -24 -47 -29 -94 -29 -47 0 -63 5 -94 29 -42
31 -66 78 -66 126 0 71 -86 105 -137 54z"/>
<path d="M3260 1264 c-128 -47 -220 -170 -220 -295 0 -74 75 -115 130 -71 15
12 25 35 31 72 9 58 29 91 73 124 39 29 133 29 173 0 34 -24 73 -98 73 -137 0
-68 87 -101 137 -51 23 23 25 31 20 82 -10 111 -81 213 -182 261 -65 31 -172
38 -235 15z"/>
<path d="M1760 1120 l0 -80 80 0 80 0 0 80 0 80 -80 0 -80 0 0 -80z"/>
<path d="M2640 960 l0 -80 80 0 80 0 0 80 0 80 -80 0 -80 0 0 -80z"/>
<path d="M1863 854 c-23 -23 -25 -31 -20 -82 10 -111 80 -212 182 -263 68 -33
197 -34 267 -2 100 46 175 153 185 262 5 54 3 62 -20 85 -51 51 -137 17 -137
-54 0 -48 -24 -95 -66 -126 -31 -24 -47 -29 -94 -29 -47 0 -63 5 -94 29 -42
31 -66 78 -66 126 0 71 -86 105 -137 54z"/>
</g>
</svg>
